<?xml version="1.0" encoding="utf-8"?>
<!-- Generator: Avocode 2.6.0 - http://avocode.com -->
<svg height="18" width="32" xmlns:xlink="http://www.w3.org/1999/xlink" xmlns="http://www.w3.org/2000/svg" viewBox="0 0 32 18">
    <path fill="#00bfe8" fill-rule="evenodd" d="M 1.07 9.04 C 1.07 9.04 5.41 12.32 5.41 12.32 C 5.54 12.41 5.7 12.4 5.82 12.4 C 6.3 12.4 6.3 11.95 6.3 11.84 C 6.3 11.84 6.3 5.14 6.3 5.14 C 6.3 5.04 6.3 4.58 5.82 4.58 C 5.7 4.58 5.54 4.57 5.41 4.66 C 5.41 4.66 1.07 7.94 1.07 7.94 C 0.71 8.19 0.77 8.49 0.77 8.49 C 0.77 8.49 0.71 8.79 1.07 9.04 Z" />
    <path fill="#b0bec5" fill-rule="evenodd" d="M 9.96 17.28 C 9.96 17.28 31.11 17.28 31.11 17.28 C 31.11 17.28 31.11 14.52 31.11 14.52 C 31.11 14.52 9.96 14.52 9.96 14.52 C 9.96 14.52 9.96 17.28 9.96 17.28 Z M 9.96 10.38 C 9.96 10.38 31.11 10.38 31.11 10.38 C 31.11 10.38 31.11 7.62 31.11 7.62 C 31.11 7.62 9.96 7.62 9.96 7.62 C 9.96 7.62 9.96 10.38 9.96 10.38 Z M 9.96 0.72 C 9.96 0.72 9.96 3.48 9.96 3.48 C 9.96 3.48 31.11 3.48 31.11 3.48 C 31.11 3.48 31.11 0.72 31.11 0.72 C 31.11 0.72 9.96 0.72 9.96 0.72 Z" />
</svg>