<?xml version="1.0" encoding="utf-8"?>
<!-- Generator: Avocode 2.6.0 - http://avocode.com -->
<svg height="6" width="9" xmlns:xlink="http://www.w3.org/1999/xlink" xmlns="http://www.w3.org/2000/svg" viewBox="0 0 9 6">
    <path fill="#c0c0c4" fill-rule="evenodd" d="M 0 1.22 C 0 0.92 0.1 0.62 0.31 0.38 C 0.73 -0.11 1.44 -0.13 1.88 0.34 C 1.88 0.34 4.51 3.07 4.51 3.07 C 4.51 3.07 7.11 0.34 7.11 0.34 C 7.56 -0.13 8.26 -0.11 8.69 0.38 C 9.11 0.87 9.1 1.64 8.65 2.11 C 8.65 2.11 5.28 5.65 5.28 5.65 C 4.85 6.1 4.17 6.1 3.74 5.65 C 3.74 5.65 0.35 2.11 0.35 2.11 C 0.12 1.87 0 1.55 0 1.22 Z" />
</svg>