<?xml version="1.0" encoding="utf-8"?>
<!-- Generator: Avocode 2.6.0 - http://avocode.com -->
<svg height="13" width="13" xmlns:xlink="http://www.w3.org/1999/xlink" xmlns="http://www.w3.org/2000/svg" viewBox="0 0 13 13">
    <path fill="#c5c5c9" fill-rule="evenodd" d="M 12.71 12.62 C 12.71 12.62 12.63 12.71 12.63 12.71 C 12.15 13.18 11.4 13.05 10.87 12.52 C 10.87 12.52 8.85 10.5 8.18 9.83 C 8.06 9.71 7.91 9.8 7.91 9.8 C 5.88 11.01 3.29 10.75 1.54 9 C -0.51 6.95 -0.51 3.6 1.54 1.54 C 3.6 -0.51 6.95 -0.51 9 1.54 C 10.75 3.29 11.01 5.88 9.8 7.91 C 9.8 7.91 9.71 8.06 9.83 8.17 C 10.5 8.85 12.52 10.86 12.52 10.86 C 13.05 11.4 13.18 12.15 12.71 12.62 Z M 8.03 2.52 C 6.51 1 4.04 1 2.52 2.52 C 1 4.04 1 6.51 2.52 8.03 C 4.04 9.55 6.51 9.55 8.03 8.03 C 9.55 6.51 9.55 4.04 8.03 2.52 Z M 7.69 4.96 C 7.48 4.96 7.28 4.83 7.19 4.63 C 6.69 3.44 5.31 2.88 4.13 3.38 C 3.85 3.5 3.53 3.37 3.41 3.09 C 3.3 2.82 3.42 2.5 3.7 2.38 C 5.44 1.65 7.46 2.46 8.19 4.2 C 8.31 4.48 8.18 4.8 7.9 4.92 C 7.84 4.95 7.76 4.96 7.69 4.96 Z" />
</svg>