<?xml version="1.0" encoding="utf-8"?>
<!-- Generator: Avocode 2.6.0 - http://avocode.com -->
<svg height="18" width="19" xmlns:xlink="http://www.w3.org/1999/xlink" xmlns="http://www.w3.org/2000/svg" viewBox="0 0 19 18">
    <path fill="#b0bec5" fill-rule="evenodd" d="M 18.88 9.27 C 18.88 9.27 13.61 14.45 13.61 14.45 C 13.54 14.52 13.44 14.56 13.33 14.56 C 13.23 14.56 13.13 14.52 13.05 14.45 C 13.05 14.45 11.8 13.22 11.8 13.22 C 11.65 13.07 11.65 12.83 11.8 12.68 C 11.8 12.68 14.19 10.34 14.19 10.34 C 14.19 10.34 3.87 10.34 3.87 10.34 C 3.65 10.34 3.48 10.16 3.48 9.95 C 3.48 9.95 3.48 8.05 3.48 8.05 C 3.48 7.84 3.65 7.66 3.87 7.66 C 3.87 7.66 14.18 7.66 14.18 7.66 C 14.18 7.66 11.8 5.32 11.8 5.32 C 11.65 5.17 11.65 4.93 11.8 4.78 C 11.8 4.78 13.05 3.55 13.05 3.55 C 13.2 3.41 13.46 3.41 13.61 3.55 C 13.61 3.55 18.88 8.73 18.88 8.73 C 18.96 8.8 19 8.9 19 9 C 19 9.1 18.96 9.2 18.88 9.27 Z M 11.99 2.19 C 11.99 2.19 2.23 2.19 2.23 2.19 C 2.23 2.19 2.23 15.81 2.23 15.81 C 2.23 15.81 11.99 15.81 11.99 15.81 C 12.2 15.81 12.38 15.99 12.38 16.2 C 12.38 16.2 12.38 17.62 12.38 17.62 C 12.38 17.83 12.2 18 11.99 18 C 11.99 18 0.39 18 0.39 18 C 0.18 18 0 17.83 0 17.62 C 0 17.62 0 0.38 0 0.38 C 0 0.17 0.18 0 0.39 0 C 0.39 0 11.99 0 11.99 0 C 12.2 0 12.38 0.17 12.38 0.38 C 12.38 0.38 12.38 1.8 12.38 1.8 C 12.38 2.01 12.2 2.19 11.99 2.19 Z" />
</svg>