<?xml version="1.0" encoding="utf-8"?>
<!-- Generator: Avocode 2.6.0 - http://avocode.com -->
<svg height="18" width="18" xmlns:xlink="http://www.w3.org/1999/xlink" xmlns="http://www.w3.org/2000/svg" viewBox="0 0 18 18">
    <path fill="#b0bec5" fill-rule="evenodd" d="M 18 9.55 C 18 9.55 18 8.45 18 8.45 C 18 8.16 17.79 7.9 17.49 7.85 C 17.49 7.85 15.54 7.53 15.54 7.53 C 15.54 7.53 15.51 7.4 15.51 7.4 C 15.38 6.88 15.19 6.37 14.95 5.91 C 14.95 5.91 14.89 5.79 14.89 5.79 C 14.89 5.79 16.14 4.25 16.14 4.25 C 16.33 4.01 16.32 3.68 16.12 3.46 C 16.12 3.46 15.39 2.64 15.39 2.64 C 15.2 2.43 14.86 2.38 14.62 2.53 C 14.62 2.53 12.95 3.58 12.95 3.58 C 12.95 3.58 12.84 3.51 12.84 3.51 C 12.17 3.03 11.41 2.7 10.61 2.5 C 10.61 2.5 10.48 2.47 10.48 2.47 C 10.48 2.47 10.15 0.51 10.15 0.51 C 10.11 0.21 9.85 0 9.56 0 C 9.56 0 8.46 0 8.46 0 C 8.16 0 7.91 0.21 7.86 0.51 C 7.86 0.51 7.54 2.47 7.54 2.47 C 7.54 2.47 7.41 2.5 7.41 2.5 C 6.75 2.66 6.12 2.92 5.53 3.28 C 5.53 3.28 5.42 3.35 5.42 3.35 C 5.42 3.35 3.84 2.21 3.84 2.21 C 3.6 2.05 3.26 2.07 3.05 2.28 C 3.05 2.28 2.28 3.05 2.28 3.05 C 2.07 3.26 2.04 3.59 2.21 3.84 C 2.21 3.84 3.35 5.42 3.35 5.42 C 3.35 5.42 3.28 5.53 3.28 5.53 C 2.93 6.11 2.67 6.74 2.51 7.4 C 2.51 7.4 2.48 7.52 2.48 7.52 C 2.48 7.52 0.51 7.85 0.51 7.85 C 0.21 7.9 0 8.16 0 8.45 C 0 8.45 0 9.55 0 9.55 C 0 9.84 0.21 10.1 0.51 10.15 C 0.51 10.15 2.48 10.48 2.48 10.48 C 2.48 10.48 2.51 10.6 2.51 10.6 C 2.65 11.16 2.85 11.68 3.1 12.16 C 3.1 12.16 3.16 12.27 3.16 12.27 C 3.16 12.27 1.92 13.81 1.92 13.81 C 1.73 14.04 1.74 14.37 1.94 14.6 C 1.94 14.6 2.66 15.41 2.66 15.41 C 2.85 15.63 3.2 15.68 3.44 15.52 C 3.44 15.52 5.13 14.46 5.13 14.46 C 5.13 14.46 5.24 14.54 5.24 14.54 C 5.89 14.98 6.62 15.31 7.41 15.5 C 7.41 15.5 7.54 15.53 7.54 15.53 C 7.54 15.53 7.86 17.49 7.86 17.49 C 7.91 17.79 8.16 18 8.46 18 C 8.46 18 9.56 18 9.56 18 C 9.85 18 10.11 17.79 10.15 17.49 C 10.15 17.49 10.48 15.53 10.48 15.53 C 10.48 15.53 10.61 15.5 10.61 15.5 C 11.26 15.34 11.88 15.08 12.46 14.73 C 12.46 14.73 12.57 14.67 12.57 14.67 C 12.57 14.67 14.22 15.84 14.22 15.84 C 14.46 16.01 14.8 15.98 15.01 15.78 C 15.01 15.78 15.78 15.01 15.78 15.01 C 15.99 14.8 16.02 14.47 15.84 14.22 C 15.84 14.22 14.67 12.58 14.67 12.58 C 14.67 12.58 14.73 12.47 14.73 12.47 C 15.09 11.88 15.35 11.26 15.51 10.6 C 15.51 10.6 15.54 10.47 15.54 10.47 C 15.54 10.47 17.49 10.15 17.49 10.15 C 17.79 10.1 18 9.84 18 9.55 Z M 9.03 12.64 C 7.02 12.64 5.38 11.01 5.38 9 C 5.38 6.99 7.02 5.36 9.03 5.36 C 11.04 5.36 12.67 6.99 12.67 9 C 12.67 11.01 11.04 12.64 9.03 12.64 Z" />
</svg>